<svg xmlns="http://www.w3.org/2000/svg" version="1.1" xmlns:xlink="http://www.w3.org/1999/xlink" xmlns:svgjs="http://svgjs.com/svgjs" width="1440" height="560" preserveAspectRatio="none" viewBox="0 0 1440 560"><g mask="url(&quot;#SvgjsMask1729&quot;)" fill="none"><rect width="1440" height="560" x="0" y="0" fill="url(#SvgjsLinearGradient1730)"></rect><path d="M918 542L563 897" stroke-width="6" stroke="url(#SvgjsLinearGradient1731)" stroke-linecap="round" class="BottomLeft"></path><path d="M527 423L207 743" stroke-width="8" stroke="url(#SvgjsLinearGradient1732)" stroke-linecap="round" class="TopRight"></path><path d="M1405 495L996 904" stroke-width="10" stroke="url(#SvgjsLinearGradient1732)" stroke-linecap="round" class="TopRight"></path><path d="M406 43L112 337" stroke-width="8" stroke="url(#SvgjsLinearGradient1731)" stroke-linecap="round" class="BottomLeft"></path><path d="M1398 187L1774 -189" stroke-width="10" stroke="url(#SvgjsLinearGradient1731)" stroke-linecap="round" class="BottomLeft"></path><path d="M886 432L502 816" stroke-width="8" stroke="url(#SvgjsLinearGradient1731)" stroke-linecap="round" class="BottomLeft"></path><path d="M885 376L618 643" stroke-width="10" stroke="url(#SvgjsLinearGradient1731)" stroke-linecap="round" class="BottomLeft"></path><path d="M1012 305L1239 78" stroke-width="8" stroke="url(#SvgjsLinearGradient1732)" stroke-linecap="round" class="TopRight"></path><path d="M1183 221L899 505" stroke-width="6" stroke="url(#SvgjsLinearGradient1732)" stroke-linecap="round" class="TopRight"></path><path d="M839 354L457 736" stroke-width="10" stroke="url(#SvgjsLinearGradient1731)" stroke-linecap="round" class="BottomLeft"></path><path d="M734 119L471 382" stroke-width="6" stroke="url(#SvgjsLinearGradient1732)" stroke-linecap="round" class="TopRight"></path><path d="M934 547L538 943" stroke-width="10" stroke="url(#SvgjsLinearGradient1732)" stroke-linecap="round" class="TopRight"></path><path d="M1106 413L889 630" stroke-width="6" stroke="url(#SvgjsLinearGradient1732)" stroke-linecap="round" class="TopRight"></path><path d="M1353 550L1760 143" stroke-width="10" stroke="url(#SvgjsLinearGradient1732)" stroke-linecap="round" class="TopRight"></path><path d="M1378 459L1776 61" stroke-width="6" stroke="url(#SvgjsLinearGradient1731)" stroke-linecap="round" class="BottomLeft"></path><path d="M85 224L-79 388" stroke-width="10" stroke="url(#SvgjsLinearGradient1731)" stroke-linecap="round" class="BottomLeft"></path><path d="M409 29L78 360" stroke-width="6" stroke="url(#SvgjsLinearGradient1732)" stroke-linecap="round" class="TopRight"></path><path d="M993 485L1331 147" stroke-width="10" stroke="url(#SvgjsLinearGradient1732)" stroke-linecap="round" class="TopRight"></path><path d="M720 69L1077 -288" stroke-width="8" stroke="url(#SvgjsLinearGradient1732)" stroke-linecap="round" class="TopRight"></path><path d="M510 285L338 457" stroke-width="10" stroke="url(#SvgjsLinearGradient1732)" stroke-linecap="round" class="TopRight"></path><path d="M1150 247L778 619" stroke-width="6" stroke="url(#SvgjsLinearGradient1732)" stroke-linecap="round" class="TopRight"></path><path d="M170 502L-9 681" stroke-width="10" stroke="url(#SvgjsLinearGradient1731)" stroke-linecap="round" class="BottomLeft"></path><path d="M802 558L973 387" stroke-width="6" stroke="url(#SvgjsLinearGradient1731)" stroke-linecap="round" class="BottomLeft"></path><path d="M445 153L860 -262" stroke-width="8" stroke="url(#SvgjsLinearGradient1731)" stroke-linecap="round" class="BottomLeft"></path><path d="M658 233L886 5" stroke-width="8" stroke="url(#SvgjsLinearGradient1731)" stroke-linecap="round" class="BottomLeft"></path><path d="M117 188L-218 523" stroke-width="10" stroke="url(#SvgjsLinearGradient1731)" stroke-linecap="round" class="BottomLeft"></path><path d="M662 391L1068 -15" stroke-width="10" stroke="url(#SvgjsLinearGradient1731)" stroke-linecap="round" class="BottomLeft"></path><path d="M43 225L242 26" stroke-width="10" stroke="url(#SvgjsLinearGradient1732)" stroke-linecap="round" class="TopRight"></path><path d="M785 520L562 743" stroke-width="6" stroke="url(#SvgjsLinearGradient1731)" stroke-linecap="round" class="BottomLeft"></path><path d="M574 126L787 -87" stroke-width="8" stroke="url(#SvgjsLinearGradient1732)" stroke-linecap="round" class="TopRight"></path><path d="M147 224L-32 403" stroke-width="6" stroke="url(#SvgjsLinearGradient1732)" stroke-linecap="round" class="TopRight"></path><path d="M146 450L503 93" stroke-width="8" stroke="url(#SvgjsLinearGradient1732)" stroke-linecap="round" class="TopRight"></path><path d="M1342 364L1531 175" stroke-width="6" stroke="url(#SvgjsLinearGradient1732)" stroke-linecap="round" class="TopRight"></path><path d="M1194 213L1391 16" stroke-width="6" stroke="url(#SvgjsLinearGradient1732)" stroke-linecap="round" class="TopRight"></path><path d="M736 386L367 755" stroke-width="8" stroke="url(#SvgjsLinearGradient1732)" stroke-linecap="round" class="TopRight"></path><path d="M821 224L1196 -151" stroke-width="10" stroke="url(#SvgjsLinearGradient1731)" stroke-linecap="round" class="BottomLeft"></path><path d="M728 237L1028 -63" stroke-width="10" stroke="url(#SvgjsLinearGradient1732)" stroke-linecap="round" class="TopRight"></path><path d="M749 84L603 230" stroke-width="6" stroke="url(#SvgjsLinearGradient1732)" stroke-linecap="round" class="TopRight"></path><path d="M1226 107L1633 -300" stroke-width="10" stroke="url(#SvgjsLinearGradient1732)" stroke-linecap="round" class="TopRight"></path></g><defs><mask id="SvgjsMask1729"><rect width="1440" height="560" fill="#ffffff"></rect></mask><linearGradient x1="15.28%" y1="139.29%" x2="84.72%" y2="-39.29%" gradientUnits="userSpaceOnUse" id="SvgjsLinearGradient1730"><stop stop-color="#0e2a47" offset="0"></stop><stop stop-color="rgba(0, 83, 190, 1)" offset="1"></stop></linearGradient><linearGradient x1="100%" y1="0%" x2="0%" y2="100%" id="SvgjsLinearGradient1731"><stop stop-color="rgba(17, 101, 189, 0)" offset="0"></stop><stop stop-color="rgba(17, 101, 189, 1)" offset="1"></stop></linearGradient><linearGradient x1="0%" y1="100%" x2="100%" y2="0%" id="SvgjsLinearGradient1732"><stop stop-color="rgba(17, 101, 189, 0)" offset="0"></stop><stop stop-color="rgba(17, 101, 189, 1)" offset="1"></stop></linearGradient></defs></svg>