<svg xmlns="http://www.w3.org/2000/svg" version="1.1" xmlns:xlink="http://www.w3.org/1999/xlink" xmlns:svgjs="http://svgjs.com/svgjs" width="1440" height="560" preserveAspectRatio="none" viewBox="0 0 1440 560"><g mask="url(&quot;#SvgjsMask1001&quot;)" fill="none"><rect width="1440" height="560" x="0" y="0" fill="rgba(47, 114, 183, 1)"></rect><path d="M0,389.905C83.728,393.709,169.234,416.232,246.258,383.185C329.448,347.492,399.714,281.999,440.202,201.034C481.397,118.655,491.632,22.11,471.801,-67.835C452.71,-154.419,398.234,-228.642,332.377,-288.006C271.59,-342.8,195.677,-379.619,114.49,-389.918C40.15,-399.348,-26.874,-355.811,-100.697,-342.941C-186.879,-327.916,-287.035,-362.523,-355.441,-307.991C-424.868,-252.645,-457.724,-153.098,-449.766,-64.667C-442.194,19.476,-353.193,68.509,-314.787,143.758C-278.782,214.303,-294.678,312.656,-232.286,361.443C-169.565,410.488,-79.538,386.291,0,389.905" fill="#265b92"></path><path d="M1440 868.6859999999999C1498.46 856.307 1555.143 848.23 1609.989 824.508 1674.452 796.626 1751.231 778.893 1787.147 718.537 1823.734 657.052 1805.854 579.642 1798.018 508.525 1789.935 435.161 1783.2939999999999 359.679 1740.9479999999999 299.227 1696.241 235.406 1630.054 189.01600000000002 1556.395 163.59500000000003 1480.585 137.43200000000002 1396.797 128.454 1320.86 154.248 1246.314 179.57 1182.04 234.62900000000002 1144.135 303.632 1109.433 366.804 1122.3690000000001 442.35 1123.008 514.423 1123.5529999999999 575.932 1133.375 633.693 1147.59 693.539 1165.288 768.049 1150.758 868.488 1216.4569999999999 907.8399999999999 1282.696 947.5160000000001 1364.462 884.681 1440 868.6859999999999" fill="#4589cf"></path></g><defs><mask id="SvgjsMask1001"><rect width="1440" height="560" fill="#ffffff"></rect></mask></defs></svg>