<svg height="515pt" viewBox="0 -1 515.088 515" width="515pt" xmlns="http://www.w3.org/2000/svg"><path d="m512 292.523438v-72.960938l-62-29.359375-10.273438-24.765625 23.089844-64.59375-51.617187-51.617188-64.640625 23.105469-24.71875-10.238281-29.359375-62.0507812h-72.960938l-29.375 62.0507812-24.71875 10.238281-64.625-23.105469-51.617187 51.617188 23.089844 64.609375-10.273438 24.765625-62 29.34375v72.960938l62 29.359374 10.273438 24.769532-23.089844 64.589844 51.617187 51.617187 64.605469-23.085937 24.769531 10.269531 29.34375 62h72.960938l29.359375-62 24.769531-10.269531 64.589844 23.085937 51.617187-51.617187-23.089844-64.605469 10.273438-24.769531zm-256 59.519531c-53.019531 0-96-42.980469-96-96s42.980469-96 96-96 96 42.980469 96 96-42.980469 96-96 96zm0 0" fill="#ffcb5a"/><path d="m256 112.042969c-79.527344 0-144 64.472656-144 144 0 79.53125 64.472656 144 144 144s144-64.46875 144-144c-.089844-79.492188-64.507812-143.910157-144-144zm0 240c-53.019531 0-96-42.980469-96-96s42.980469-96 96-96 96 42.980469 96 96-42.980469 96-96 96zm0 0" fill="#fba61f"/><path d="m484.800781 342.445312 30.289063-41.359374-33.488282-58.035157-50.976562 5.554688-16.6875-9.601563-20.691406-46.960937h-66.941406l-20.703126 46.929687-16.707031 9.597656-50.957031-5.550781-33.457031 58.015625 30.273437 41.410156v19.199219l-30.273437 41.40625 33.472656 57.984375 50.957031-5.550781 16.707032 9.601563 20.6875 46.957031h66.941406l20.691406-46.925781 16.6875-9.601563 50.976562 5.550781 33.46875-57.980468-30.269531-41.441407zm-125.023437 41.597657c-17.675782 0-32-14.324219-32-32 0-17.671875 14.324218-32 32-32 17.671875 0 32 14.328125 32 32 0 17.675781-14.328125 32-32 32zm0 0" fill="#77959e"/><path d="m359.777344 416.042969c-35.347656 0-64-28.652344-64-64 0-35.34375 28.652344-64 64-64 35.34375 0 64 28.65625 64 64 0 35.347656-28.65625 64-64 64zm0-96c-17.675782 0-32 14.328125-32 32 0 17.675781 14.324218 32 32 32 17.671875 0 32-14.324219 32-32 0-17.671875-14.328125-32-32-32zm0 0" fill="#62808c"/></svg>